:SAMPLES-PER-SECOND 30
:FULLY-SPECIFIED
:DEGREES
477
root  -8.2223 37.6771 0.691768 -126.5 -87.7682 114.581
RightUpLeg  -0.767623 3.4408 -21.0142
RightLeg  22.5036 -2.88873 -1.53666
RightFoot  -3.86069 -1.13438 16.8348
RightToes  7.56698e-010 0 -3.6325e-017
Spine  11.4782 -1.48497 -0.831642
Spine1  7.77929 -2.3576 0.339727
HEad  -6.54565 -7.44314 -4.62756
LeftShoulder1  2.32423 -5.91736 -18.0865
LeftArm  -7.77829 13.8876 -47.6177
LeftForeArm  140.81 -73.4917 -142.641
LeftHand  -0.658285 1.89024 21.6782
RightShoulder  1.48844 2.85688 16.7927
RightArm  -7.7978 -17.2815 48.9491
RightForeArm  64.4278 77.7169 50.0242
RightHand  -1.41081 3.42027 -18.687
LeftUpLeg  4.99272 -3.97619 13.0713
LeftLeg  25.4859 -0.275992 0.199508
LeftFoot  -15.1336 -0.451483 -16.2132
LeftToes  -3.13779e-010 -2.47553e-011 -5.36621e-011
478
root  -8.23221 37.9568 0.779406 -116.085 -88.271 105.836
RightUpLeg  -0.213039 0.616754 -21.3036
RightLeg  18.4518 -0.997635 -0.580309
RightFoot  -2.32295 -1.39992 17.4105
RightToes  7.56698e-010 0 -3.6325e-017
Spine  10.5934 -1.31836 -1.02856
Spine1  5.21933 -2.49574 2.20155
HEad  -0.986421 -9.09413 -6.15376
LeftShoulder1  2.26052 -5.62889 -18.1734
LeftArm  -6.65927 16.7855 -52.3197
LeftForeArm  122.837 -77.909 -123.571
LeftHand  -0.822815 1.42164 23.9182
RightShoulder  1.45035 2.7414 16.599
RightArm  -5.38898 -19.0061 48.3129
RightForeArm  52.131 74.3575 36.1047
RightHand  -1.55815 3.90867 -19.5431
LeftUpLeg  5.17089 -2.37898 14.0543
LeftLeg  21.3667 -2.44152 -0.570912
LeftFoot  -14.6551 -0.417635 -17.3678
LeftToes  -3.13779e-010 -2.47553e-011 -5.36621e-011
479
root  -8.19248 38.2354 0.767361 -76.8405 -88.0608 68.6135
RightUpLeg  0.325528 -2.44618 -21.6963
RightLeg  14.5102 0.562097 -0.557224
RightFoot  -1.56168 -1.63411 18.8241
RightToes  7.56698e-010 0 -3.6325e-017
Spine  9.4117 -1.30377 -2.91642
Spine1  2.99047 -2.96335 4.86146
HEad  3.21671 -10.3611 -6.36544
LeftShoulder1  2.26485 -5.705 -18.0048
LeftArm  -5.6881 19.6694 -55.6864
LeftForeArm  96.1121 -79.8596 -96.137
LeftHand  -0.93501 1.3003 26.3383
RightShoulder  1.35464 2.34721 16.5259
RightArm  -3.29727 -20.1204 48.1127
RightForeArm  48.4051 71.2837 28.4463
RightHand  -1.63066 4.06621 -20.0961
LeftUpLeg  4.31002 0.500312 14.4529
LeftLeg  17.8356 -6.35532 -0.96585
LeftFoot  -13.6824 -0.299253 -18.478
LeftToes  -3.13779e-010 -2.47553e-011 -5.36621e-011
480
root  -8.09382 38.4496 0.727497 -43.6157 -87.0628 37.0103
RightUpLeg  1.05081 -6.69957 -21.444
RightLeg  10.8599 2.46121 -1.73421
RightFoot  -0.765069 -1.77719 18.9924
RightToes  7.56698e-010 0 -3.6325e-017
Spine  8.17168 -1.58347 -4.04192
Spine1  2.41003 -3.41307 6.28429
HEad  4.5849 -12.0925 -4.97308
LeftShoulder1  2.30537 -5.97119 -17.7192
LeftArm  -4.22683 21.1034 -57.1373
LeftForeArm  72.6846 -79.4415 -72.0618
LeftHand  -0.999542 1.2654 27.8654
RightShoulder  1.27074 1.98371 16.5354
RightArm  -2.86356 -21.247 48.9635
RightForeArm  48.2816 69.4817 25.0984
RightHand  -1.62828 3.95828 -20.288
LeftUpLeg  3.1307 2.39295 14.2456
LeftLeg  15.1885 -9.09909 -0.335118
LeftFoot  -12.2216 -0.07231 -18.6807
LeftToes  -3.13779e-010 -2.47553e-011 -5.36621e-011
481
root  -7.92595 38.577 0.677349 -29.5922 -86.0505 23.7253
RightUpLeg  1.91601 -9.7739 -21.0913
RightLeg  8.01946 3.79574 -2.53264
RightFoot  0.33261 -1.92327 18.6772
RightToes  7.56698e-010 0 -3.6325e-017
Spine  7.73689 -1.8066 -3.63905
Spine1  2.79149 -3.45196 5.78118
HEad  3.6838 -14.1958 -2.7591
LeftShoulder1  2.33175 -6.09094 -17.6883
LeftArm  -2.01047 21.0263 -56.7886
LeftForeArm  59.8128 -78.2864 -58.6362
LeftHand  -1.05253 1.10631 28.2364
RightShoulder  1.25683 1.90599 16.6187
RightArm  -3.51767 -22.33 50.4631
RightForeArm  46.8843 68.3432 23.5513
RightHand  -1.5944 3.72722 -20.3626
LeftUpLeg  2.54399 3.48643 14.166
LeftLeg  13.1643 -10.9506 0.437976
LeftFoot  -10.8788 0.140693 -18.6445
LeftToes  -3.13779e-010 -2.47553e-011 -5.36621e-011
482
root  -7.72127 38.6526 0.588696 -24.3508 -85.4528 18.4858
RightUpLeg  2.89004 -11.795 -21.2272
RightLeg  6.12516 5.17776 -2.34449
RightFoot  1.18493 -2.12224 19.2413
RightToes  7.56698e-010 0 -3.6325e-017
Spine  8.10329 -1.76117 -2.72735
Spine1  3.40693 -3.08229 4.3852
HEad  1.92175 -16.0003 -0.510019
LeftShoulder1  2.3629 -6.02857 -18.2146
LeftArm  0.511261 19.9547 -55.1588
LeftForeArm  53.7572 -77.2815 -51.3121
LeftHand  -1.08829 0.956906 28.211
RightShoulder  1.26952 1.93903 16.7194
RightArm  -3.67069 -22.4632 51.9034
RightForeArm  43.8565 66.6498 21.7058
RightHand  -1.55843 3.49564 -20.4147
LeftUpLeg  2.65564 5.57723 14.6113
LeftLeg  11.6706 -13.7122 0.594224
LeftFoot  -10.0403 0.273766 -18.7048
LeftToes  -3.13779e-010 -2.47553e-011 -5.36621e-011
483
root  -7.56111 38.7258 0.46099 -20.7034 -85.2106 14.8356
RightUpLeg  3.70512 -13.2402 -21.4824
RightLeg  4.54658 6.11082 -1.61059
RightFoot  1.85802 -2.32281 20.001
RightToes  7.56698e-010 0 -3.6325e-017
Spine  8.18605 -1.5628 -1.94481
Spine1  4.07326 -2.57285 3.20862
HEad  0.679228 -17.1576 1.44707
LeftShoulder1  2.40218 -5.921 -18.9688
LeftArm  2.75189 18.6637 -53.2844
LeftForeArm  48.9013 -75.931 -44.1132
LeftHand  -1.10829 0.915354 28.4539
RightShoulder  1.25976 1.89962 16.7082
RightArm  -2.55398 -21.4922 52.9836
RightForeArm  41.6125 63.7586 18.8132
RightHand  -1.48716 3.31846 -19.886
LeftUpLeg  2.85285 7.76616 15.3785
LeftLeg  10.4322 -16.2083 0.41493
LeftFoot  -9.27541 0.396029 -18.7539
LeftToes  -3.13779e-010 -2.47553e-011 -5.36621e-011
484
root  -7.49795 38.8034 0.328655 -15.0851 -85.1615 9.62927
RightUpLeg  4.12764 -13.8788 -21.2846
RightLeg  2.93499 5.99146 -0.867893
RightFoot  2.70753 -2.47702 20.0674
RightToes  7.56698e-010 0 -3.6325e-017
Spine  7.45406 -1.33998 -1.14457
Spine1  4.45266 -2.06592 2.50691
HEad  0.839455 -17.9427 2.92734
LeftShoulder1  2.40435 -5.81879 -19.294
LeftArm  4.4935 17.9466 -52.2213
LeftForeArm  42.7474 -73.4891 -35.6332
LeftHand  -1.14263 0.864949 28.988
RightShoulder  1.2408 1.85596 16.5298
RightArm  -0.616288 -20.2941 53.8295
RightForeArm  40.825 59.76 15.5552
RightHand  -1.38597 3.28921 -18.6379
LeftUpLeg  2.81289 9.02262 16.1069
LeftLeg  9.09692 -17.3707 0.617129
LeftFoot  -8.29775 0.556787 -18.9388
LeftToes  -3.13779e-010 -2.47553e-011 -5.36621e-011
485
root  -7.50543 38.8649 0.204147 -9.14551 -85.1388 4.24329
RightUpLeg  4.30149 -13.9909 -20.78
RightLeg  1.60898 5.56027 -0.3619
RightFoot  3.48491 -2.59727 19.9595
RightToes  7.56698e-010 0 -3.6325e-017
Spine  6.52264 -1.09134 -0.428445
Spine1  4.21243 -1.58987 2.1519
HEad  2.36182 -18.7845 3.6679
LeftShoulder1  2.37775 -5.75591 -19.1737
LeftArm  5.83564 17.997 -52.059
LeftForeArm  36.5641 -70.0823 -28.2716
LeftHand  -1.19655 0.755225 29.6134
RightShoulder  1.22493 1.83759 16.2913
RightArm  1.55457 -19.4009 54.5156
RightForeArm  39.5431 54.9501 12.6855
RightHand  -1.33976 3.44738 -17.723
LeftUpLeg  2.76314 9.74561 16.6877
LeftLeg  7.69808 -17.9468 1.14798
LeftFoot  -7.42056 0.711048 -19.3217
LeftToes  -3.13779e-010 -2.47553e-011 -5.36621e-011
486
root  -7.52303 38.9068 0.0720749 -5.25476 -84.9634 0.717285
RightUpLeg  4.50504 -14.0305 -20.3875
RightLeg  0.781295 5.23757 -0.0293132
RightFoot  3.8287 -2.68917 20.2007
RightToes  7.56698e-010 0 -3.6325e-017
Spine  5.97876 -0.859395 -0.154572
Spine1  3.59631 -1.24746 2.05619
HEad  4.3226 -19.7297 3.58348
LeftShoulder1  2.3899 -5.76851 -19.2766
LeftArm  6.91405 18.3417 -51.9415
LeftForeArm  31.8637 -66.5367 -23.2444
LeftHand  -1.24338 0.687629 30.3017
RightShoulder  1.19149 1.72952 16.1114
RightArm  3.93435 -18.4522 54.9949
RightForeArm  36.4387 49.6376 10.4188
RightHand  -1.35919 3.51689 -17.8374
LeftUpLeg  2.86062 10.6056 17.2208
LeftLeg  6.43552 -18.8926 1.49756
LeftFoot  -6.79832 0.825458 -19.6236
LeftToes  -3.13779e-010 -2.47553e-011 -5.36621e-011
487
root  -7.51753 38.9302 -0.0613587 -2.12317 -84.538 -2.2157
RightUpLeg  4.73747 -14.0806 -20.0787
RightLeg  0.336278 4.7002 0.283108
RightFoot  3.86962 -2.72699 20.4238
RightToes  7.56698e-010 0 -3.6325e-017
Spine  5.71816 -0.812213 -0.156114
Spine1  3.11735 -1.18475 2.13596
HEad  5.63975 -20.5438 3.05298
LeftShoulder1  2.43605 -5.73091 -19.9279
LeftArm  7.7623 18.5718 -51.319
LeftForeArm  28.8853 -63.3413 -19.9242
LeftHand  -1.26261 0.733339 31.0401
RightShoulder  1.14483 1.54807 15.9983
RightArm  6.70231 -17.0208 55.3085
RightForeArm  32.2379 44.1359 8.64578
RightHand  -1.3635 3.36907 -18.1815
LeftUpLeg  2.84533 11.5516 17.8451
LeftLeg  5.55495 -20.1636 1.49623
LeftFoot  -6.30575 0.912508 -19.7263
LeftToes  -3.13779e-010 -2.47553e-011 -5.36621e-011
488
root  -7.49088 38.9342 -0.173086 1.28674 -84.0006 -5.58618
RightUpLeg  4.93214 -14.1073 -19.7262
RightLeg  0.229753 4.10469 0.589079
RightFoot  3.84797 -2.71752 20.3824
RightToes  7.56698e-010 0 -3.6325e-017
Spine  5.60716 -0.97401 -0.103913
Spine1  2.92863 -1.36298 2.26728
HEad  5.86809 -21.1684 2.67663
LeftShoulder1  2.44836 -5.53119 -20.6968
LeftArm  8.3239 18.7103 -50.5981
LeftForeArm  26.8817 -60.3267 -17.4396
LeftHand  -1.26133 0.831937 31.6506
RightShoulder  1.11897 1.45206 15.9091
RightArm  9.86292 -15.2065 55.5979
RightForeArm  27.6652 38.526 7.19094
RightHand  -1.30558 3.13003 -17.8982
LeftUpLeg  2.70717 12.2337 18.5443
LeftLeg  5.12589 -21.2938 1.36311
LeftFoot  -5.95004 0.980454 -19.8948
LeftToes  -3.13779e-010 -2.47553e-011 -5.36621e-011
489
root  -7.45783 38.9214 -0.257369 3.9209 -83.6163 -8.495
RightUpLeg  5.15256 -14.0936 -19.4204
RightLeg  0.577873 3.89138 0.795368
RightFoot  3.66728 -2.68166 20.3525
RightToes  7.56698e-010 0 -3.6325e-017
Spine  5.77616 -1.12035 0.0231288
Spine1  2.90466 -1.51607 2.35029
HEad  5.41889 -21.786 2.73509
LeftShoulder1  2.43456 -5.35243 -21.1123
LeftArm  8.69715 18.8047 -50.3707
LeftForeArm  24.9723 -56.9581 -15.2045
LeftHand  -1.26042 0.904638 32.1184
RightShoulder  1.11354 1.44211 15.8381
RightArm  13.3591 -13.3988 55.9769
RightForeArm  22.3433 32.657 5.92144
RightHand  -1.25725 2.966 -17.5821
LeftUpLeg  2.76566 12.5416 19.1774
LeftLeg  5.10984 -22.0839 1.26952
LeftFoot  -5.90611 1.00342 -20.2144
LeftToes  -3.13779e-010 -2.47553e-011 -5.36621e-011
490
root  -7.43154 38.9038 -0.321026 5.40479 -83.4133 -10.469
RightUpLeg  5.41135 -14.0072 -19.1832
RightLeg  1.1865 3.86808 0.820815
RightFoot  3.30319 -2.62346 20.3947
RightToes  7.56698e-010 0 -3.6325e-017
Spine  6.10549 -1.08493 0.208867
Spine1  2.97303 -1.4548 2.2874
HEad  5.02535 -22.5239 3.02544
LeftShoulder1  2.46196 -5.4319 -21.18
LeftArm  9.25555 18.6604 -50.6857
LeftForeArm  22.8978 -52.7141 -12.9431
LeftHand  -1.27242 0.950685 32.7295
RightShoulder  1.09965 1.37862 15.8487
RightArm  17.2877 -11.9531 56.3921
RightForeArm  15.7966 26.637 4.8537
RightHand  -1.29689 2.93845 -18.1728
LeftUpLeg  3.02904 12.5551 19.6268
LeftLeg  5.33479 -22.536 1.24394
LeftFoot  -6.07705 0.983551 -20.4154
LeftToes  -3.13779e-010 -2.47553e-011 -5.36621e-011
491
root  -7.42048 38.8919 -0.359412 6.20105 -83.1438 -11.5957
RightUpLeg  5.58875 -13.8314 -18.9326
RightLeg  1.64994 3.52972 0.690148
RightFoot  3.01783 -2.56019 20.2934
RightToes  7.56698e-010 0 -3.6325e-017
Spine  6.22651 -0.990612 0.490502
Spine1  3.04727 -1.30687 2.07431
HEad  5.01602 -23.2986 3.21123
LeftShoulder1  2.51745 -5.65166 -21.1217
LeftArm  10.3942 18.1597 -51.2427
LeftForeArm  20.746 -47.5345 -10.7374
LeftHand  -1.29152 1.00681 33.6022
RightShoulder  1.08108 1.26883 15.9921
RightArm  17.385 -11.0013 56.3982
RightForeArm  12.6475 20.4704 5.77174
RightHand  -1.38138 2.95289 -19.295
LeftUpLeg  3.11766 12.4337 19.8482
LeftLeg  5.55289 -22.7915 1.27399
LeftFoot  -6.16999 0.9658 -20.3825
LeftToes  -3.13779e-010 -2.47553e-011 -5.36621e-011
